<?xml version="1.0" encoding="utf-8"?>
<!-- Generator: Adobe Illustrator 21.0.0, SVG Export Plug-In . SVG Version: 6.00 Build 0)  -->
<svg version="1.1" id="Capa_1" xmlns="http://www.w3.org/2000/svg" xmlns:xlink="http://www.w3.org/1999/xlink" x="0px" y="0px"
	 viewBox="0 0 24 24" style="enable-background:new 0 0 24 24;" xml:space="preserve">
<g>
	<g>
		<g>
			<circle cx="14.2" cy="16.3" r="0.5"/>
		</g>
	</g>
	<g>
		<g>
			<circle cx="12" cy="16.3" r="0.5"/>
		</g>
	</g>
	<g>
		<g>
			<circle cx="9.8" cy="16.3" r="0.5"/>
		</g>
	</g>
	<g>
		<g>
			<circle cx="7.6" cy="16.3" r="0.5"/>
		</g>
	</g>
	<g>
		<g>
			<circle cx="5.5" cy="16.3" r="0.5"/>
		</g>
	</g>
	<g>
		<g>
			<circle cx="3.3" cy="16.3" r="0.5"/>
		</g>
	</g>
	<g>
		<g>
			<path d="M8.2,3.2H4.9C4,3.2,3.3,4,3.3,4.9V6c0,0.3,0.2,0.5,0.5,0.5S4.4,6.3,4.4,6V4.9c0-0.3,0.2-0.5,0.5-0.5h3.3
				c0.3,0,0.5,0.2,0.5,0.5v4.9H6.9L6.2,8.5C6,7.9,5.4,7.6,4.8,7.6H2.2C1.9,7.6,1.7,7.8,1.7,8l-1.1,3.8c-0.1,0.3,0.1,0.6,0.4,0.7
				c0.1,0,0.1,0,0.1,0c0.2,0,0.5-0.2,0.5-0.4l1-3.4h2.2C5,8.7,5.2,8.8,5.3,9l0.8,1.6c0.1,0.2,0.3,0.3,0.5,0.3h2.7
				c0.3,0,0.5-0.2,0.5-0.5V4.9C9.8,4,9.1,3.2,8.2,3.2z"/>
		</g>
	</g>
	<g>
		<g>
			<path d="M24,19C24,18.9,24,18.9,24,19l-2.2-7.2c-0.4-1.2-1.4-1.9-2.6-1.9c-0.3,0-0.5,0.2-0.5,0.5v0.5h-2.2V8.1
				c0-0.3-0.2-0.5-0.5-0.5h-4.4c-0.3,0-0.5,0.2-0.5,0.5c0,0.3,0.2,0.5,0.5,0.5h3.8v5.5h0c0,0.2,0.1,0.3,0.2,0.4
				c0.6,0.4,0.9,1.1,0.9,1.7c0,1.2-1,2.2-2.2,2.2H3.3c-1.2,0-2.2-1-2.2-2.2c0-1.2,1-2.2,2.2-2.2h10.4c0.3,0,0.5-0.2,0.5-0.5
				c0-0.3-0.2-0.5-0.5-0.5H3.3C1.5,13,0,13.5,0,15.3c0,1.8,1.5,4.3,3.3,4.3h10.9c1.8,0,3.3-1.5,3.3-3.3c0-0.8-0.3-1.6-0.8-2.2h2.5
				c0.3,0,0.5-0.2,0.5-0.5V11c0.5,0.2,0.9,0.6,1.1,1.1l2,6.5h-0.3c-0.9,0-1.7-0.4-2.2-1.1c-0.4-0.5-0.5-1-0.5-1.6
				c0-0.3-0.2-0.5-0.5-0.5c-0.3,0-0.5,0.2-0.5,0.5c0,0.8,0.3,1.6,0.8,2.3c0.7,1,1.9,1.5,3.1,1.5h1.1c0,0,0,0,0,0c0.1,0,0.1,0,0.2,0
				c0,0,0,0,0,0c0,0,0.1,0,0.1-0.1c0,0,0.1,0,0.1-0.1c0,0,0-0.1,0.1-0.1c0,0,0-0.1,0.1-0.1c0,0,0-0.1,0-0.1c0,0,0-0.1,0-0.1
				C24,19.1,24,19.1,24,19C24,19,24,19,24,19z M18.5,13h-2.2V12h2.2V13z"/>
		</g>
	</g>
	<g>
		<g>
			<path d="M14.2,9.2h-2.7c-0.3,0-0.5,0.2-0.5,0.5c0,0.3,0.2,0.5,0.5,0.5h2.7c0.3,0,0.5-0.2,0.5-0.5C14.7,9.5,14.5,9.2,14.2,9.2z"/>
		</g>
	</g>
</g>
</svg>
