<?xml version="1.0" encoding="utf-8"?>
<!-- Generator: Adobe Illustrator 21.0.0, SVG Export Plug-In . SVG Version: 6.00 Build 0)  -->
<svg version="1.1" id="Capa_1" xmlns="http://www.w3.org/2000/svg" xmlns:xlink="http://www.w3.org/1999/xlink" x="0px" y="0px"
	 viewBox="0 0 24 24" style="enable-background:new 0 0 24 24;" xml:space="preserve">
<g>
	<g>
		<g>
			<path d="M22.6,13.4c0-1.2-0.9-2.1-2.1-2.1h-5.6c0.5-0.8,0.7-3.1,0.7-4.1c0-1.6-1.3-2.9-2.9-2.9H12c-0.4,0-0.7,0.3-0.7,0.7
				c0,1.6-0.6,4.6-1.8,5.7l0,0c-0.8,0.8-1.5,1.1-2.4,1.5V12c0-0.4-0.3-0.7-0.7-0.7H2.1c-0.4,0-0.7,0.3-0.7,0.7v11.3
				c0,0.4,0.3,0.7,0.7,0.7h4.2c0.4,0,0.7-0.3,0.7-0.7v-0.4c1.4,0.5,3.1,1.1,5.8,1.1h4.8c1.2,0,2.1-0.9,2.1-2.1
				c0-0.3-0.1-0.5-0.1-0.8c0.9-0.2,1.6-1.1,1.6-2c0-0.3-0.1-0.5-0.1-0.8c0.9-0.2,1.6-1.1,1.6-2c0-0.5-0.2-1-0.6-1.4
				C22.4,14.4,22.6,13.9,22.6,13.4z M5.7,13.4v8.5v0.7H2.8v-9.9h2.8V13.4z M20.5,17c-0.5,0-3.8,0-4.2,0c-0.4,0-0.7,0.3-0.7,0.7
				s0.3,0.7,0.7,0.7H19c0.4,0,0.7,0.3,0.7,0.7s-0.3,0.7-0.7,0.7c-0.3,0-2.5,0-2.8,0c-0.4,0-0.7,0.3-0.7,0.7c0,0.4,0.3,0.7,0.7,0.7
				h1.4c0.4,0,0.7,0.3,0.7,0.7s-0.3,0.7-0.7,0.7h-4.8c-2.5,0-4-0.6-5.8-1.2v-7.6c1.6-0.8,2.4-1.1,3.4-2.2c1.3-1.3,2-4.3,2.2-6
				c0.8,0,1.4,0.7,1.4,1.5c0,1.1-0.4,3.5-1.2,4.3c-0.2,0.2-0.3,0.5-0.2,0.8c0.1,0.3,0.4,0.4,0.7,0.4h7c0.4,0,0.7,0.3,0.7,0.7
				s-0.3,0.7-0.7,0.7h-4.2c-0.4,0-0.7,0.3-0.7,0.7s0.3,0.7,0.7,0.7h4.2c0.4,0,0.7,0.4,0.7,0.8C21.2,16.6,20.8,17,20.5,17z"/>
		</g>
	</g>
	<g>
		<g>
			<path d="M11.9,1.8l-0.7-1.4C11,0,10.6-0.1,10.3,0.1C9.9,0.2,9.8,0.7,10,1l0.7,1.4c0.2,0.3,0.6,0.5,0.9,0.3
				C12,2.6,12.1,2.1,11.9,1.8z"/>
		</g>
	</g>
	<g>
		<g>
			<path d="M16.5,0.1c-0.3-0.2-0.8,0-0.9,0.3l-0.7,1.4c-0.2,0.3,0,0.8,0.3,0.9c0.3,0.2,0.8,0,0.9-0.3L16.9,1
				C17,0.7,16.9,0.2,16.5,0.1z"/>
		</g>
	</g>
	<g>
		<g>
			<path d="M19,4.2h-1.4c-0.4,0-0.7,0.3-0.7,0.7c0,0.4,0.3,0.7,0.7,0.7H19c0.4,0,0.7-0.3,0.7-0.7C19.7,4.5,19.4,4.2,19,4.2z"/>
		</g>
	</g>
	<g>
		<g>
			<path d="M9.2,4.2H7.8c-0.4,0-0.7,0.3-0.7,0.7c0,0.4,0.3,0.7,0.7,0.7h1.4c0.4,0,0.7-0.3,0.7-0.7C9.9,4.5,9.6,4.2,9.2,4.2z"/>
		</g>
	</g>
</g>
</svg>
