<?xml version="1.0" encoding="utf-8"?>
<!-- Generator: Adobe Illustrator 21.0.0, SVG Export Plug-In . SVG Version: 6.00 Build 0)  -->
<svg version="1.1" id="Capa_1" xmlns="http://www.w3.org/2000/svg" xmlns:xlink="http://www.w3.org/1999/xlink" x="0px" y="0px"
	 viewBox="0 0 24 24" style="enable-background:new 0 0 24 24;" xml:space="preserve">
<g>
	<g>
		<path d="M7.4,18.2c-1.1,0-1.9,0.9-1.9,1.9s0.9,1.9,1.9,1.9s1.9-0.9,1.9-1.9S8.4,18.2,7.4,18.2z M7.4,21.3c-0.6,0-1.2-0.5-1.2-1.2
			c0-0.6,0.5-1.2,1.2-1.2s1.2,0.5,1.2,1.2C8.5,20.8,8,21.3,7.4,21.3z"/>
	</g>
</g>
<g>
	<g>
		<rect x="18.6" y="18.2" width="2.3" height="0.8"/>
	</g>
</g>
<g>
	<g>
		<path d="M23.5,16.3c-0.8-1.8-2.6-2.9-4.5-3.1V6.6h0.8v2.3c0,0.4,0.3,0.8,0.8,0.8h0.8c0.4,0,0.8-0.3,0.8-0.8V6.6
			c0-0.4-0.3-0.8-0.8-0.8h-2.4c-0.1-0.3-0.2-0.5-0.4-0.8H19c0.4,0,0.8-0.3,0.8-0.8V3.5c0-0.4-0.3-0.8-0.8-0.8V0h-3l-1.2,2.7H8.9
			c-0.4,0-0.8,0.3-0.8,0.8v0.8C8.1,4.7,8.5,5,8.9,5H9C8.8,5.2,8.7,5.5,8.6,5.7l-1.1,4.5c-0.1,0.4-0.4,0.7-0.8,0.8l-4.6,1.4
			c-0.8,0.2-1.4,1-1.4,1.9v4.1L0,18.7v3.4h4C4.7,23.2,5.9,24,7.4,24c1.9,0,3.4-1.3,3.8-3.1h2.5c0.3,0.6,0.7,1.1,1.1,1.6c0,0,0,0,0,0
			c0.3,0.3,0.6,0.5,0.9,0.7c0,0,0,0,0.1,0c0.3,0.2,0.6,0.3,1,0.5c0,0,0.1,0,0.1,0c0.2,0.1,0.3,0.1,0.5,0.1c0,0,0,0,0,0
			c0.2,0,0.3,0.1,0.5,0.1c0,0,0.1,0,0.1,0c0.2,0,0.4,0,0.5,0c2.1,0,4-1.2,4.9-3.1H24v-4.6L23.5,16.3L23.5,16.3z M20.5,6.6h0.8v2.3
			h-0.8V6.6z M18.6,13.9c1.7,0,3.2,0.9,4,2.3h-0.9c-0.7-1-1.9-1.5-3.1-1.5c-2.1,0-3.9,1.7-3.9,3.9h-0.8C13.9,16,16,13.9,18.6,13.9z
			 M20.6,16.3h-3l-2.2,2.2c0.1-1.6,1.4-2.9,3.1-2.9C19.3,15.5,20.1,15.8,20.6,16.3z M16.3,10.5v3.2c-0.2,0.1-0.3,0.2-0.5,0.2h-5.4
			v-3.5H16.3z M10.5,9.7l0.6-3.1h5.1v3.1H10.5z M16.5,0.8h1.7v1.9h-2.5L16.5,0.8z M8.9,4.3V3.5H19l0,0.8H17h-6.5H8.9z M8.3,10.4
			l1.1-4.5C9.5,5.4,10,5,10.5,5H17c0.6,0,1.2,0.5,1.2,1.2v7c-0.4,0-0.8,0.1-1.2,0.2V5.8h-6.5L9.7,10l0,3.9H8.9l-1.1-2.6
			C8.1,11.1,8.2,10.8,8.3,10.4z M3.7,21.3H0.8v-2l3.1-0.9c-0.3,0.5-0.4,1.1-0.4,1.7C3.5,20.5,3.5,20.9,3.7,21.3z M1.5,18.3v-1.6
			l1.5,0l0-0.8l-1.5,0v-0.8l1.5,0l0-0.8l-1.5,0v0c0-0.5,0.3-1,0.8-1.1L7,11.9c0.1,0,0.1,0,0.2-0.1l2,4.9c-0.5-0.3-1.2-0.5-1.8-0.5
			c-1.1,0-2.1,0.4-2.8,1.2L1.5,18.3z M7.4,23.2c-1.7,0-3.1-1.4-3.1-3.1S5.6,17,7.4,17s3.1,1.4,3.1,3.1S9.1,23.2,7.4,23.2z
			 M10.9,18.6c-0.1-0.2-0.2-0.4-0.4-0.6l-1.3-3.2h5.6c-1,1-1.6,2.4-1.6,3.9H10.9z M18.6,23.2c-0.2,0-0.3,0-0.5,0c0,0-0.1,0-0.1,0
			c-0.1,0-0.3,0-0.4-0.1c0,0,0,0,0,0c-0.2,0-0.3-0.1-0.4-0.1c0,0-0.1,0-0.1,0c-0.3-0.1-0.6-0.2-0.9-0.4c0,0,0,0,0,0
			c-0.3-0.2-0.5-0.4-0.8-0.6c0,0,0,0,0,0c-0.1-0.1-0.2-0.2-0.3-0.4l0,0c-0.2-0.2-0.3-0.4-0.4-0.6h0.9c0.7,1,1.9,1.5,3.1,1.5
			s2.4-0.6,3.1-1.5h0.9C21.8,22.3,20.3,23.2,18.6,23.2z M16.5,20.9h4.1c-0.6,0.5-1.3,0.8-2,0.8S17.1,21.4,16.5,20.9z M23.2,20.1h-12
			c0-0.3,0-0.5-0.1-0.8h4.5L18,17h5.3V20.1z"/>
	</g>
</g>
<g>
	<g>
		<rect x="13.9" y="11.2" width="1.5" height="0.8"/>
	</g>
</g>
</svg>
