<svg id="Слой_1" data-name="Слой 1" xmlns="http://www.w3.org/2000/svg" viewBox="0 0 24 24"><defs><style>.cls-1{fill:#fff;}.cls-2{fill:#ff5722;}.cls-3{fill:#fff;}.cls-4{fill:#fff;}.cls-5{fill:#fff;}.cls-6{fill:#ff5722;}</style></defs><title>Монтажная область 1</title><path class="cls-1" d="M12,17.86H.07c-.05,0-.07,0-.07-.06Q0,12,0,6.21c0-.05,0-.06.07-.06H23.93c.05,0,.07,0,.07.06Q24,12,24,17.79c0,.05,0,.06-.07.06Z"/><path class="cls-2" d="M2.41,14.46a.21.21,0,0,0,0,.11c0,.32,0,.64,0,1,0,.14-.05.2-.19.2H1.69a.15.15,0,0,1-.16-.17q0-1.15,0-2.3c0-.12.06-.18.2-.18h.75c.12,0,.12,0,.12-.13s0-.41,0-.61,0-.12-.11-.13l-1.36-.08-.23,0c-.15,0-.2-.1-.16-.25L1,10.95l.81-2.55c.05-.17.08-.19.26-.19H13.82a.26.26,0,0,0,.23-.1l.1-.1,1.34-1.38a.24.24,0,0,1,.18-.08h1.81c.14,0,.2.06.2.2a1.73,1.73,0,0,1,0,.39s0,.05,0,.05H18c.14,0,.2.06.2.21s0,.37,0,.55-.06.19-.19.2h-.25s-.07,0-.07.07,0,0,0,0q0,2,0,4s0,.1,0,.13a.22.22,0,0,0,0-.11q0-1.89,0-3.78c0-.18,0-.23.22-.23h3.81c.14,0,.18,0,.23.17.31.85.62,1.71.94,2.56l.29.75a.45.45,0,0,1,0,.16c0,.47,0,.95,0,1.42a.28.28,0,0,1-.08.21c-.15.16-.32.31-.46.48a.15.15,0,0,0,0,.11c0,.16,0,.33,0,.49s0,.08.07.08h.34a.16.16,0,0,1,.17.18q0,.63,0,1.26c0,.12-.05.18-.17.18H22a.19.19,0,0,1-.16-.08L21.65,16a.14.14,0,0,0-.13-.06h-.8c-.16,0-.21-.05-.21-.22s0-.26,0-.4a.79.79,0,0,0-.07-.35,1.73,1.73,0,0,0-1.52-1.11,2.28,2.28,0,0,0-1.19.16,1.65,1.65,0,0,0-.85.86,1.45,1.45,0,0,0-.14.37.14.14,0,0,1-.15.12h-.45a.15.15,0,0,1-.15-.2c0-.13.05-.25.09-.38s0-.08-.05-.08h-.45c-.07,0-.09,0-.09.1,0,.45,0,.9,0,1.35,0,.18,0,.23-.22.23H11.45c-.18,0-.22-.05-.22-.24q0-.65,0-1.31c0-.12,0-.12-.12-.12h-1a.21.21,0,0,1-.19-.1,1.83,1.83,0,0,0-1.73-.81,1.79,1.79,0,0,0-1.26.63,1.76,1.76,0,0,0-.14.2.18.18,0,0,1-.16.09H6.33a.18.18,0,0,1-.16-.1,1.77,1.77,0,0,0-1.41-.88,1.83,1.83,0,0,0-1.34.35,1.58,1.58,0,0,0-.44.52c-.07.13-.17.15-.28.06Z"/><path class="cls-2" d="M18,17.71a1.86,1.86,0,0,1-1-1.09,1.84,1.84,0,0,1,0-1.15,1.74,1.74,0,0,1,3.37,0,1.89,1.89,0,0,1-1,2.21h3.82s.06,0,.06.06,0,.07-.05.06H1s0,0,0-.06,0-.07.05-.07H3.87a1.88,1.88,0,0,1-1-1.17,1.83,1.83,0,0,1,0-1.14,1.76,1.76,0,0,1,1.73-1.23,1.78,1.78,0,0,1,1.64,1.39,1.87,1.87,0,0,1-1.07,2.14H7.73a1.87,1.87,0,0,1-.55-3.06,1.72,1.72,0,0,1,2.57.23A1.87,1.87,0,0,1,9,17.71Z"/><path class="cls-3" d="M8.1,8.53h5.84a.31.31,0,0,0,.24-.1l1.18-1.21.28-.29a.15.15,0,0,1,.12-.06h1.52s.08,0,.09,0,0,.05-.08.06L16,7.24a.25.25,0,0,0-.21.2c-.35,1.13-.69,2.26-1,3.39l-.29.91a.1.1,0,0,1-.1.08L12.5,12l-1.88.19c-.33,0-.67.08-1,.1a7.18,7.18,0,0,1-.83,0l-1.69-.1L4.77,12l-1.62-.1-2-.12c-.08,0-.1,0-.07-.11q.49-1.53,1-3.06a.12.12,0,0,1,.14-.11Z"/><path class="cls-3" d="M18.09,10.76q0-1,0-2c0-.13,0-.13.12-.13h3.45a.14.14,0,0,1,.15.11l1.14,3.11A.46.46,0,0,1,23,12c0,.41,0,.82,0,1.23a.22.22,0,0,1-.06.16l-.42.45a.3.3,0,0,0-.09.23c0,.47,0,.94,0,1.41,0,.09,0,.12-.11.12H20.94c-.08,0-.12,0-.12-.11s0-.19.19-.19.3-.06.24-.32a3.2,3.2,0,0,0-.23-.67,2.49,2.49,0,0,0-2-1.47,3.22,3.22,0,0,0-.83,0c-.08,0-.09,0-.09-.09C18.09,12.1,18.09,11.43,18.09,10.76Z"/><path class="cls-3" d="M15.39,13.07h-.72c-.07,0-.1,0-.09-.09,0-.25,0-.51,0-.76,0,0,0-.08.06-.09s.13-.12.15-.21l.53-1.73c.25-.83.51-1.65.76-2.48a.22.22,0,0,1,.2-.18c.13,0,.13,0,.13.11s0,.22,0,.33.06.19.19.19h.26c.06,0,.09,0,.08.09a.25.25,0,0,0,0,0q0,1.93,0,3.86c0,.07,0,.11-.09.13a.91.91,0,0,0-.64.71c0,.1-.06.12-.15.12Z"/><path class="cls-3" d="M13.36,16.09H11.65c-.12,0-.12,0-.12-.12,0-.62,0-1.24,0-1.86,0-.09,0-.12.11-.12H13c.08,0,.11,0,.11.11a1.39,1.39,0,0,0,0,.19.15.15,0,0,0,.14.16h.49c.09,0,.14-.06.14-.16s0-.15,0-.22,0-.08.07-.08h1.2c.08,0,.07,0,.07.1q0,.63,0,1.26,0,.31,0,.62c0,.12,0,.12-.12.12Z"/><path class="cls-3" d="M7.76,13.4h5.18s.11,0,.13,0a.39.39,0,0,1,0,.22s-.06,0-.1,0H11.46c-.2,0-.24,0-.24.25s0,.29,0,.43,0,.08-.07.08h-.95a.11.11,0,0,1-.09-.06,2.08,2.08,0,0,0-1.45-.85,2.13,2.13,0,0,0-2.06.85.14.14,0,0,1-.24,0,2.1,2.1,0,0,0-1.73-.92,2.11,2.11,0,0,0-1.33.37,1.88,1.88,0,0,0-.47.47s-.06.06-.1,0l-.25-.22a.12.12,0,0,1,0-.1q0-.26,0-.52c0-.05,0-.08.07-.08H7.76Z"/><path class="cls-3" d="M5.47,13.07h-2c-.09,0-.12,0-.11-.12s0-.4,0-.6,0-.09.09-.09l1.76.11,1.69.1.61,0c.05,0,.07,0,.07.08s0,.25,0,.38,0,.1-.1.1Z"/><path class="cls-3" d="M12.17,13.07H10.65c-.08,0-.11,0-.11-.11s0-.23,0-.35,0-.08.08-.08l2.88-.29.23,0s.07,0,.07.06c0,.24,0,.48,0,.72,0,.08-.05.07-.1.07Z"/><path class="cls-3" d="M18.71,13.54a2.38,2.38,0,0,0-1.33.33,2.31,2.31,0,0,0-.48.43,2,2,0,0,0-.39.71.08.08,0,0,1-.09.06s-.06,0,0-.07a2.86,2.86,0,0,1,.43-1,1.77,1.77,0,0,1,.92-.72,2.69,2.69,0,0,1,2.09.15,2.26,2.26,0,0,1,1,1.35,1.19,1.19,0,0,1,0,.12s0,.07,0,.08-.08,0-.1,0a2.36,2.36,0,0,0-.09-.22A2,2,0,0,0,19,13.56Z"/><path class="cls-3" d="M15,13.4h1.09a.09.09,0,0,1,.11.08.85.85,0,0,0,.2.36.09.09,0,0,1,0,.13,2.24,2.24,0,0,0-.19.37.09.09,0,0,1-.1.07h-.57c-.07,0-.08,0-.08-.09s0-.3,0-.45-.05-.21-.2-.21H14c-.12,0-.12,0-.12-.12a.5.5,0,0,0,0-.06c0-.07,0-.09.09-.09Z"/><path class="cls-3" d="M9.05,13.07H8c-.12,0-.12,0-.12-.13s0-.21,0-.32,0-.08.07-.08l1.51.09a4.58,4.58,0,0,0,.67-.05c.07,0,.09,0,.09.09a3.1,3.1,0,0,0,0,.31c0,.07,0,.09-.09.09Z"/><path class="cls-3" d="M16.49,13.21a.66.66,0,0,1,.51-.67.63.63,0,0,1,.71.33c0,.05,0,.08,0,.1a1.89,1.89,0,0,0-.81.47,1.08,1.08,0,0,0-.15.15s-.06,0-.09,0A.69.69,0,0,1,16.49,13.21Z"/><path class="cls-3" d="M17.41,10.28q0,1,0,2c0,.1-.05.13-.14.1s0,0,0,0,0-.06,0-.09q0-2,0-4s0-.11.07-.12.1,0,.1.1C17.41,8.92,17.41,9.6,17.41,10.28Z"/><path class="cls-1" d="M2.07,14.4c0,.3,0,.6,0,.9,0,.08,0,.11-.1.1s-.14,0-.14-.15q0-.87,0-1.75s0-.09,0-.11a.3.3,0,0,1,.19,0s0,.05,0,.08Q2.07,13.95,2.07,14.4Z"/><path class="cls-3" d="M17.32,7.82h-.5c-.06,0-.09,0-.09-.09s0-.21.2-.21h.9c.07,0,.09,0,.09.09s0,.21-.2.21Z"/><path class="cls-1" d="M23,15.55c0,.14,0,.28,0,.41s0,.07-.07.07h-.81S22,16,22,16s0,0,.05,0h.42c.16,0,.21,0,.21-.22s0-.4,0-.6,0-.09.08-.08.17,0,.17.18S23,15.44,23,15.55Z"/><path class="cls-4" d="M3.06,12.71c0,.09,0,.19,0,.28s0,.07-.08.07S2.9,13,2.9,13s0-.38,0-.57,0-.07.07-.07.08,0,.08.07S3.06,12.61,3.06,12.71Z"/><path class="cls-4" d="M13.54,13.77c0,.1,0,.19,0,.29s0,.07-.08.07-.08,0-.08-.07,0-.39,0-.58,0-.07.08-.07.07,0,.07.06S13.54,13.67,13.54,13.77Z"/><path class="cls-3" d="M14.27,12.64c0,.09,0,.18,0,.28s0,.09-.07.08-.08,0-.08-.08,0-.37,0-.55,0-.08.07-.08.08,0,.08.09S14.27,12.55,14.27,12.64Z"/><path class="cls-3" d="M20.1,16a1.44,1.44,0,1,1-1.43-1.5A1.46,1.46,0,0,1,20.1,16Z"/><path class="cls-3" d="M8.36,17.49A1.47,1.47,0,0,1,6.92,16,1.49,1.49,0,0,1,8.29,14.5a1.5,1.5,0,0,1,.07,3Z"/><path class="cls-3" d="M4.53,17.49a1.5,1.5,0,0,1,.06-3A1.49,1.49,0,0,1,6,16,1.47,1.47,0,0,1,4.53,17.49Z"/><path class="cls-2" d="M8.91,9h.82c.14,0,.17,0,.12.17L9,11.95a.12.12,0,0,1-.15.11L7.18,12c-.13,0-.15,0-.11-.18l.85-2.65A.13.13,0,0,1,8.06,9Z"/><path class="cls-2" d="M9.83,12.09c-.14,0-.17,0-.14-.14l.82-2.82a.12.12,0,0,1,.13-.1h1.72c.11,0,.13,0,.1.14l-.8,2.63a.12.12,0,0,1-.11.1L10.48,12Z"/><path class="cls-2" d="M6.26,11.86l-1.69-.08c-.1,0-.12,0-.09-.16l.35-1.14.41-1.34A.14.14,0,0,1,5.39,9H7.07c.13,0,.15,0,.12.16-.23.76-.46,1.52-.7,2.28,0,.11-.08.22-.12.33A.09.09,0,0,1,6.26,11.86Z"/><path class="cls-2" d="M14,9h.83c.13,0,.16,0,.11.17-.26.77-.49,1.55-.72,2.34a.12.12,0,0,1-.12.1l-1.76.15c-.12,0-.15,0-.11-.15.15-.5.29-1,.46-1.5.11-.33.21-.67.32-1a.12.12,0,0,1,.14-.1Z"/><path class="cls-2" d="M3.59,9h.85c.12,0,.15,0,.11.15C4.28,10,4,10.8,3.79,11.62a.11.11,0,0,1-.13.09L2,11.63c-.12,0-.14,0-.11-.16.14-.46.27-.92.42-1.38s.2-.64.3-1A.13.13,0,0,1,2.74,9Z"/><path class="cls-2" d="M19.82,11.17h-1c-.11,0-.13,0-.13-.13q0-1,0-2c0-.11,0-.13.13-.13h2C21,9,21,9,21,9.1q0,1,0,1.91c0,.13,0,.16-.16.16Z"/><path class="cls-2" d="M21.42,10.21c0-.37,0-.74,0-1.1,0-.07,0-.14.08-.15s.2,0,.23.12l.62,2.25c0,.13,0,.17-.12.17h-.69c-.1,0-.12,0-.12-.13C21.42,11,21.42,10.59,21.42,10.21Z"/><path class="cls-2" d="M18.24,10.77q0-.89,0-1.78s0-.06,0-.08a.08.08,0,0,1,.15,0,.43.43,0,0,1,0,.08q0,1.78,0,3.56a.51.51,0,0,1,0,.07s0,.08-.08.08a.07.07,0,0,1-.07-.08s0-.06,0-.08Q18.24,11.66,18.24,10.77Z"/><path class="cls-2" d="M19.8,11.34c.3,0,.6,0,.9,0a.35.35,0,0,1,.31.14h0a.44.44,0,0,0,.48.21c.2,0,.41,0,.62,0s.11,0,.11.08-.05.08-.11.08h-.93a.13.13,0,0,1-.1,0l-.22-.24a.17.17,0,0,0-.15-.07H18.79c-.06,0-.11,0-.11-.08s.06-.08.12-.08Z"/><path class="cls-2" d="M22.3,12.54c0-.16,0-.31,0-.47a.33.33,0,0,1,.09-.26l.1-.12a.16.16,0,1,1,.24.21.44.44,0,0,0-.11.38c0,.22,0,.44,0,.65a.35.35,0,0,0,.06.22.54.54,0,0,1,.06.11.16.16,0,0,1-.06.2.14.14,0,0,1-.2,0,.7.7,0,0,1-.18-.48A3.73,3.73,0,0,0,22.3,12.54Z"/><path class="cls-2" d="M19.1,12.07h-.31c-.06,0-.09,0-.09-.09,0-.27,0-.23.21-.23h.5c.06,0,.09,0,.09.09,0,.28,0,.23-.22.23Z"/><path class="cls-2" d="M21.65,15.54h-.57a.22.22,0,0,1-.1,0,.07.07,0,0,1,0-.06.06.06,0,0,1,0-.06l.09,0h1.19a.12.12,0,0,1,.08,0,.08.08,0,0,1,0,.09.08.08,0,0,1-.09.06h-.62Z"/><path class="cls-5" d="M21.83,14.88h.42c.06,0,.11,0,.11.08s-.06.08-.11.08h-.86c-.06,0-.11,0-.11-.08s.06-.08.11-.08Z"/><path class="cls-5" d="M21.82,14.72H21.4c-.06,0-.11,0-.12-.08s.05-.08.11-.08h.85c.06,0,.11,0,.12.08s-.06.09-.12.09Z"/><path class="cls-6" d="M12.4,15q0,.39,0,.77a.47.47,0,0,1,0,.09.07.07,0,0,1-.08.06.07.07,0,0,1-.07-.06.5.5,0,0,1,0-.1q0-.78,0-1.56c0-.07,0-.15.08-.16s.08.09.08.16C12.4,14.53,12.4,14.79,12.4,15Z"/><path class="cls-2" d="M14.4,15q0-.41,0-.81c0-.06,0-.12.08-.12s.08.06.08.12q0,.81,0,1.62s0,0,0,0,0,.1-.08.1-.08,0-.08-.1Q14.4,15.45,14.4,15Z"/><path class="cls-2" d="M17.93,16a.73.73,0,0,1,.72-.75.75.75,0,0,1,0,1.5A.73.73,0,0,1,17.93,16Z"/><path class="cls-2" d="M7.63,16a.73.73,0,1,1,.72.76A.74.74,0,0,1,7.63,16Z"/><path class="cls-2" d="M5.26,16a.73.73,0,1,1-.72-.76A.74.74,0,0,1,5.26,16Z"/><path class="cls-3" d="M8.88,9.19H9.6c.07,0,.09,0,.07.09l-.76,2.54c0,.06,0,.08-.1.07L7.29,11.8c-.08,0,0,0,0-.09l.52-1.63c.09-.26.17-.53.25-.79,0-.07.05-.1.13-.1Z"/><path class="cls-3" d="M11.48,9.19h.73c.07,0,.08,0,.06.09l-.73,2.39a.09.09,0,0,1-.09.08L10,11.91c-.07,0-.08,0-.06-.08.23-.77.45-1.54.68-2.32,0-.1.07-.19.1-.28s.05,0,.09,0Z"/><path class="cls-3" d="M6.21,9.19h.73c.07,0,.09,0,.06.09-.17.55-.32,1.1-.51,1.64l-.23.71a.08.08,0,0,1-.1.07l-1.41-.07c-.07,0-.09,0-.07-.1l.68-2.25a.11.11,0,0,1,.13-.09Z"/><path class="cls-3" d="M12.48,11.59h0c-.07,0-.08,0-.06-.07.09-.29.17-.59.27-.88.16-.45.28-.91.43-1.36,0-.07.05-.1.13-.1h1.41c.11,0,.11,0,.08.11l-.63,2.07a.12.12,0,0,1-.13.11l-1.45.12Z"/><path class="cls-3" d="M2.84,11.5l-.72,0c-.06,0-.07,0-.06-.08.08-.25.14-.5.23-.74.16-.45.28-.91.43-1.36a.11.11,0,0,1,.12-.09H4.26c.1,0,.1,0,.07.1l-.66,2.16c0,.07,0,.1-.12.09Z"/><path class="cls-3" d="M19.82,11h-.89c-.07,0-.1,0-.1-.1q0-.85,0-1.7c0-.07,0-.09.09-.09h1.79c.07,0,.09,0,.09.09q0,.86,0,1.71c0,.07,0,.09-.09.09Z"/><path class="cls-3" d="M21.59,9.16l.27,1,.3,1.09c0,.11,0,.11-.08.11h-.43s-.07,0-.07-.07q0-1,0-2.09Z"/><path class="cls-3" d="M18.65,16.58a.59.59,0,1,1,.58-.59A.58.58,0,0,1,18.65,16.58Z"/><path class="cls-3" d="M8.35,16.58A.59.59,0,1,1,8.93,16,.58.58,0,0,1,8.35,16.58Z"/><path class="cls-3" d="M4.53,16.58A.59.59,0,1,1,5.1,16,.58.58,0,0,1,4.53,16.58Z"/></svg>